<svg width="444" height="121" viewBox="0 0 444 121" fill="none" xmlns="http://www.w3.org/2000/svg">
<path d="M13.2 21.4C12.0331 21.4 10.9139 21.8636 10.0888 22.6888C9.26362 23.5139 8.80005 24.6331 8.80005 25.8C8.80005 26.967 9.26362 28.0861 10.0888 28.9113C10.9139 29.7365 12.0331 30.2 13.2 30.2H18.568L19.91 35.5768C19.9234 35.6387 19.938 35.7003 19.954 35.7616L25.9292 59.6536L22 63.5784C16.456 69.1224 20.3808 78.6 28.2216 78.6H66C67.167 78.6 68.2862 78.1364 69.1113 77.3113C69.9365 76.4861 70.4 75.367 70.4 74.2C70.4 73.0331 69.9365 71.9139 69.1113 71.0888C68.2862 70.2636 67.167 69.8 66 69.8H28.2216L32.6216 65.4H61.6C62.417 65.3996 63.2176 65.1717 63.9124 64.742C64.6071 64.3122 65.1685 63.6976 65.5336 62.9668L78.7336 36.5668C79.0688 35.8962 79.227 35.151 79.1932 34.4021C79.1595 33.6531 78.935 32.9252 78.5409 32.2874C78.1468 31.6495 77.5963 31.123 76.9417 30.7577C76.287 30.3924 75.5498 30.2004 74.8 30.2H27.632L26.268 24.7308C26.0297 23.7793 25.4802 22.9348 24.707 22.3313C23.9337 21.7278 22.9809 21.4001 22 21.4H13.2ZM70.4 89.6C70.4 91.3505 69.7047 93.0292 68.4669 94.2669C67.2292 95.5047 65.5505 96.2 63.8 96.2C62.0496 96.2 60.3709 95.5047 59.1331 94.2669C57.8954 93.0292 57.2 91.3505 57.2 89.6C57.2 87.8496 57.8954 86.1709 59.1331 84.9331C60.3709 83.6954 62.0496 83 63.8 83C65.5505 83 67.2292 83.6954 68.4669 84.9331C69.7047 86.1709 70.4 87.8496 70.4 89.6ZM28.6 96.2C30.3505 96.2 32.0292 95.5047 33.267 94.2669C34.5047 93.0292 35.2 91.3505 35.2 89.6C35.2 87.8496 34.5047 86.1709 33.267 84.9331C32.0292 83.6954 30.3505 83 28.6 83C26.8496 83 25.1709 83.6954 23.9331 84.9331C22.6954 86.1709 22 87.8496 22 89.6C22 91.3505 22.6954 93.0292 23.9331 94.2669C25.1709 95.5047 26.8496 96.2 28.6 96.2Z" fill="black"/>
<path d="M115.389 97H146.462C162.797 97 171.497 88.4773 171.497 76.9006C171.497 66.1406 163.791 59.642 155.517 59.2514V58.5412C163.081 56.8366 168.656 51.4744 168.656 42.9162C168.656 32.0142 160.56 24.2727 144.509 24.2727H115.389V97ZM130.766 84.429V65.1108H143.656C151.043 65.1108 155.624 69.3722 155.624 75.3736C155.624 80.8423 151.895 84.429 143.301 84.429H130.766ZM130.766 54.706V36.7017H142.449C149.267 36.7017 153.138 40.2173 153.138 45.473C153.138 51.2259 148.45 54.706 142.165 54.706H130.766ZM196.773 98.0298C204.834 98.0298 210.054 94.5142 212.717 89.4361H213.143V97H227.49V60.2102C227.49 47.2131 216.481 41.7443 204.336 41.7443C191.268 41.7443 182.675 47.9943 180.579 57.9375L194.571 59.0739C195.601 55.4517 198.832 52.7884 204.265 52.7884C209.415 52.7884 212.362 55.3807 212.362 59.8551V60.0682C212.362 63.5838 208.633 64.0455 199.152 64.9688C188.356 65.9631 178.662 69.5852 178.662 81.7656C178.662 92.5611 186.368 98.0298 196.773 98.0298ZM201.105 87.5895C196.453 87.5895 193.115 85.4233 193.115 81.2685C193.115 77.0071 196.631 74.9119 201.957 74.1662C205.26 73.7045 210.657 72.9233 212.469 71.7159V77.5043C212.469 83.2216 207.746 87.5895 201.105 87.5895ZM284.61 58.0085C283.26 47.9588 275.164 41.7443 261.385 41.7443C247.43 41.7443 238.232 48.2074 238.268 58.7188C238.232 66.8864 243.381 72.1776 254.035 74.3082L263.481 76.1903C268.239 77.1491 270.405 78.8892 270.476 81.6236C270.405 84.8551 266.89 87.1634 261.599 87.1634C256.201 87.1634 252.614 84.8551 251.691 80.4162L236.812 81.1974C238.232 91.6378 247.11 98.0653 261.563 98.0653C275.697 98.0653 285.817 90.8565 285.853 80.0966C285.817 72.2131 280.668 67.4901 270.086 65.3239L260.214 63.3352C255.135 62.2344 253.253 60.4943 253.289 57.8665C253.253 54.5994 256.947 52.4688 261.634 52.4688C266.89 52.4688 270.015 55.3452 270.76 58.8608L284.61 58.0085ZM295.379 97H310.507V79.6705L314.59 75.0185L329.47 97H347.19L325.919 66.0696L346.16 42.4545H328.795L311.323 63.1577H310.507V24.2727H295.379V97ZM376.194 98.0653C389.688 98.0653 398.779 91.4957 400.91 81.375L386.918 80.4517C385.391 84.6065 381.485 86.7727 376.442 86.7727C368.878 86.7727 364.084 81.7656 364.084 73.6335V73.598H401.229V69.4432C401.229 50.9062 390.008 41.7443 375.59 41.7443C359.539 41.7443 349.134 53.1435 349.134 69.9759C349.134 87.2699 359.397 98.0653 376.194 98.0653ZM364.084 64.223C364.404 58.0085 369.127 53.0369 375.839 53.0369C382.408 53.0369 386.954 57.7244 386.989 64.223H364.084ZM440.114 42.4545H429.851V29.3864H414.724V42.4545H407.266V53.8182H414.724V82.2273C414.653 92.9162 421.932 98.2074 432.905 97.7457C436.812 97.6037 439.581 96.8224 441.108 96.3253L438.729 85.0682C437.983 85.2102 436.385 85.5653 434.965 85.5653C431.947 85.5653 429.851 84.429 429.851 80.2386V53.8182H440.114V42.4545Z" fill="black"/>
</svg>
